<svg width="50" height="50" viewBox="0 0 50 50" fill="none" xmlns="http://www.w3.org/2000/svg">
  <path d="M39.0625 6.25H35.9375V10.9375H14.0625V6.25H10.9375V10.9375H7.8125C6.1875 10.9375 4.6875 12.4375 4.6875 14.0625V39.0625C4.6875 40.6875 6.1875 42.1875 7.8125 42.1875H39.0625C40.6875 42.1875 42.1875 40.6875 42.1875 39.0625V14.0625C42.1875 12.4375 40.6875 10.9375 39.0625 10.9375H35.9375V6.25ZM37.5 37.5H10.9375V18.75H37.5V37.5Z" fill="#4FA94D"/>
  <path d="M20.3125 28.125H14.0625V34.375H20.3125V28.125Z" fill="#4FA94D"/>
  <path d="M29.6875 28.125H23.4375V34.375H29.6875V28.125Z" fill="#4FA94D"/>
  <path d="M20.3125 21.875H14.0625V25H20.3125V21.875Z" fill="#4FA94D"/>
  <path d="M29.6875 21.875H23.4375V25H29.6875V21.875Z" fill="#4FA94D"/>
  <path d="M35.9375 21.875H32.8125V25H35.9375V21.875Z" fill="#4FA94D"/>
  <path d="M35.9375 28.125H32.8125V34.375H35.9375V28.125Z" fill="#4FA94D"/>
</svg> 