<svg width="400" height="600" viewBox="0 0 400 600" fill="none" xmlns="http://www.w3.org/2000/svg">
  <rect width="400" height="600" fill="#4FA94D" fill-opacity="0.1"/>
  <rect x="150" y="250" width="100" height="100" rx="50" fill="#4FA94D"/>
  <path d="M200 262.5C191.25 262.5 184.375 269.375 184.375 278.125C184.375 283.75 187.5 288.75 192.188 291.562C183.75 294.688 178.125 302.812 178.125 312.5H181.25C181.25 302.188 189.688 293.75 200 293.75C210.312 293.75 218.75 302.188 218.75 312.5H221.875C221.875 302.812 216.25 294.688 207.812 291.562C212.5 288.75 215.625 283.75 215.625 278.125C215.625 269.375 208.75 262.5 200 262.5ZM200 265.625C207.188 265.625 212.5 270.938 212.5 278.125C212.5 285.312 207.188 290.625 200 290.625C192.812 290.625 187.5 285.312 187.5 278.125C187.5 270.938 192.812 265.625 200 265.625Z" fill="white"/>
  <text x="200" y="350" font-family="Arial" font-size="20" text-anchor="middle" fill="#4FA94D">Login Image</text>
</svg> 