<svg width="300" height="200" viewBox="0 0 300 200" fill="none" xmlns="http://www.w3.org/2000/svg">
  <rect width="300" height="200" fill="#F3F4F6"/>
  <rect x="125" y="75" width="50" height="50" rx="25" fill="#4FA94D"/>
  <path d="M148.438 95.3125H151.562C152.188 95.3125 152.5 95.625 152.5 96.25V105C152.5 105.625 152.188 106.25 151.562 106.25H148.438C147.812 106.25 147.5 105.625 147.5 105V96.25C147.5 95.625 147.812 95.3125 148.438 95.3125ZM138.75 91.5625H141.875C142.5 91.5625 142.812 91.875 142.812 92.5V105C142.812 105.625 142.5 106.25 141.875 106.25H138.75C138.125 106.25 137.812 105.625 137.812 105V92.5C137.812 91.875 138.125 91.5625 138.75 91.5625ZM159.062 91.5625H162.188C162.812 91.5625 163.125 91.875 163.125 92.5V105C163.125 105.625 162.812 106.25 162.188 106.25H159.062C158.438 106.25 158.125 105.625 158.125 105V92.5C158.125 91.875 158.438 91.5625 159.062 91.5625ZM156.562 87.1875H153.438C153.125 87.1875 152.812 87.5 152.5 87.5C152.188 87.8125 152.188 88.125 152.188 88.4375C152.188 88.75 152.188 88.4375 152.5 88.4375C152.812 88.75 153.125 88.75 153.438 88.75H156.562C156.875 88.75 157.188 88.75 157.5 88.4375C157.812 88.125 157.812 88.75 157.812 88.4375C157.812 88.125 157.812 87.8125 157.5 87.5C157.188 87.5 156.875 87.1875 156.562 87.1875Z" fill="white"/>
  <text x="150" y="140" font-family="Arial" font-size="14" text-anchor="middle" fill="#4FA94D">Restaurant Image</text>
</svg> 