<svg width="50" height="50" viewBox="0 0 50 50" fill="none" xmlns="http://www.w3.org/2000/svg">
  <path d="M40.625 18.75H35.9375V12.5C35.9375 11.5272 35.0478 10.9375 34.375 10.9375H6.25C5.5772 10.9375 4.6875 11.5272 4.6875 12.5V34.375C4.6875 35.3478 5.5772 35.9375 6.25 35.9375H8.6792C9.0582 38.2633 11.0598 40 13.2812 40C15.5027 40 17.5043 38.2633 17.8833 35.9375H32.1167C32.4957 38.2633 34.4973 40 36.7188 40C38.9402 40 40.9418 38.2633 41.3208 35.9375H43.75C44.4228 35.9375 45.3125 35.3478 45.3125 34.375V25C45.3125 23.9583 44.8455 22.2918 44.2708 21.4583L41.6667 18.75C41.3708 18.75 40.9792 18.75 40.625 18.75ZM13.2812 37.5C11.9995 37.5 10.9375 36.438 10.9375 35.1562C10.9375 33.8745 11.9995 32.8125 13.2812 32.8125C14.563 32.8125 15.625 33.8745 15.625 35.1562C15.625 36.438 14.563 37.5 13.2812 37.5ZM36.7188 37.5C35.437 37.5 34.375 36.438 34.375 35.1562C34.375 33.8745 35.437 32.8125 36.7188 32.8125C38.0005 32.8125 39.0625 33.8745 39.0625 35.1562C39.0625 36.438 38.0005 37.5 36.7188 37.5ZM42.1875 25.7812H35.9375V21.25H39.9647L42.1875 23.9583V25.7812Z" fill="#4FA94D"/>
  <path d="M25 18.75H11.7188V21.25H25V18.75Z" fill="#4FA94D"/>
  <path d="M25 25H9.375V27.5H25V25Z" fill="#4FA94D"/>
</svg> 