<svg width="200" height="200" viewBox="0 0 200 200" fill="none" xmlns="http://www.w3.org/2000/svg">
  <circle cx="100" cy="100" r="96" fill="#F3F4F6" stroke="#4FA94D" stroke-width="8"/>
  <path d="M71.5 92.5C71.5 98.0228 67.0228 102.5 61.5 102.5C55.9772 102.5 51.5 98.0228 51.5 92.5C51.5 86.9772 55.9772 82.5 61.5 82.5C67.0228 82.5 71.5 86.9772 71.5 92.5Z" fill="#4FA94D"/>
  <path d="M148.5 92.5C148.5 98.0228 144.023 102.5 138.5 102.5C132.977 102.5 128.5 98.0228 128.5 92.5C128.5 86.9772 132.977 82.5 138.5 82.5C144.023 82.5 148.5 86.9772 148.5 92.5Z" fill="#4FA94D"/>
  <path d="M60 125C81.5 155 118.5 155 140 125" stroke="#4FA94D" stroke-width="8" stroke-linecap="round"/>
  <path d="M160 63.5L143 68" stroke="#4FA94D" stroke-width="8" stroke-linecap="round"/>
  <path d="M40 63.5L57 68" stroke="#4FA94D" stroke-width="8" stroke-linecap="round"/>
  <path d="M80 42L87 58" stroke="#4FA94D" stroke-width="8" stroke-linecap="round"/>
  <path d="M120 42L113 58" stroke="#4FA94D" stroke-width="8" stroke-linecap="round"/>
</svg> 