<svg width="800" height="600" viewBox="0 0 800 600" fill="none" xmlns="http://www.w3.org/2000/svg">
  <rect width="800" height="600" fill="#E5E7EB"/>
  <rect x="350" y="250" width="100" height="100" rx="50" fill="#4FA94D"/>
  <path d="M418.75 290.625C418.75 290 418.125 289.375 417.5 289.375H407.5C406.875 289.375 406.25 290 406.25 290.625V306.25H403.125V296.25C403.125 295.625 402.5 295 401.875 295H391.875C391.25 295 390.625 295.625 390.625 296.25V306.25H387.5V290.625C387.5 290 386.875 289.375 386.25 289.375H376.25C375.625 289.375 375 290 375 290.625V311.25C375 311.875 375.625 312.5 376.25 312.5H417.5C418.125 312.5 418.75 311.875 418.75 311.25V290.625ZM396.875 310H393.75V298.125H396.875V310ZM415.625 310H409.375V292.5H415.625V310ZM384.375 310H378.125V292.5H384.375V310Z" fill="white"/>
  <text x="400" y="400" font-family="Arial" font-size="24" text-anchor="middle" fill="#4FA94D">Food Image</text>
</svg> 