<svg width="400" height="600" viewBox="0 0 400 600" fill="none" xmlns="http://www.w3.org/2000/svg">
  <rect width="400" height="600" fill="#4FA94D" fill-opacity="0.15"/>
  <rect x="150" y="250" width="100" height="100" rx="50" fill="#4FA94D"/>
  <path d="M218.75 271.875H215.625V265.625H212.5V271.875H206.25V275H212.5V281.25H215.625V275H221.875V271.875H218.75ZM196.875 268.75C196.875 264.062 193.125 260.312 188.438 260.312C183.75 260.312 180 264.062 180 268.75C180 273.438 183.75 277.188 188.438 277.188C193.125 277.188 196.875 273.438 196.875 268.75ZM193.75 268.75C193.75 271.875 191.562 274.062 188.438 274.062C185.312 274.062 183.125 271.875 183.125 268.75C183.125 265.625 185.312 263.438 188.438 263.438C191.562 263.438 193.75 265.625 193.75 268.75ZM196.875 307.812V298.75C196.875 292.5 186.25 289.375 188.438 289.375C180.938 289.375 175 293.125 175 298.75V307.812H196.875ZM178.125 298.75C178.125 295 183.125 292.5 188.438 292.5C193.75 292.5 198.75 295 198.75 298.75V304.688H178.125V298.75Z" fill="white"/>
  <text x="200" y="350" font-family="Arial" font-size="20" text-anchor="middle" fill="#4FA94D">Signup Image</text>
</svg> 